<?xml version="1.0" encoding="utf-8"?>
<!-- Generator: Adobe Illustrator 24.3.0, SVG Export Plug-In . SVG Version: 6.00 Build 0)  -->
<svg version="1.1" id="Countryflags.com" xmlns="http://www.w3.org/2000/svg" xmlns:xlink="http://www.w3.org/1999/xlink" x="0px"
	 y="0px" viewBox="0 0 300 300" style="enable-background:new 0 0 300 300;" xml:space="preserve">
<style type="text/css">
	.st0{clip-path:url(#SVGID_2_);}
	.st1{fill:#EE1C25;}
	.st2{fill:#0B4EA2;}
	.st3{fill:#FFFFFF;}
	.st4{clip-path:url(#_x31__2_);fill:#FFFFFF;}
	.st5{clip-path:url(#_x31__2_);fill:#0B4EA2;}
</style>
<g>
	<defs>
		<circle id="SVGID_1_" cx="150" cy="150" r="150"/>
	</defs>
	<clipPath id="SVGID_2_">
		<use xlink:href="#SVGID_1_"  style="overflow:visible;"/>
	</clipPath>
	<g class="st0">
		<rect id="_x38__1_" x="-45" class="st1" width="450" height="300"/>
		<rect id="_x37__1_" x="-45" class="st2" width="450" height="200"/>
		<rect id="_x36__1_" x="-45" class="st3" width="450" height="100"/>
		<path id="_x35__1_" class="st3" d="M113.13,231.75c-26.89-12.95-65.35-38.66-65.35-89.52s2.43-73.98,2.43-73.98h62.92h62.92
			c0,0,2.43,23.13,2.43,73.98S140.02,218.8,113.13,231.75z"/>
		<path id="_x34__1_" class="st1" d="M113.13,225c-24.67-11.88-59.96-35.47-59.96-82.13C53.17,96.22,55.4,75,55.4,75h57.73h57.73
			c0,0,2.23,21.22,2.23,67.87C173.09,189.53,137.8,213.12,113.13,225z"/>
		<g id="Group_1">
			<defs>
				<path id="_x31__1_" d="M113.13,225c-24.67-11.88-59.96-35.47-59.96-82.13C53.17,96.22,55.4,75,55.4,75h57.73h57.73
					c0,0,2.23,21.22,2.23,67.87C173.09,189.53,137.8,213.12,113.13,225z"/>
			</defs>
			<clipPath id="_x31__2_">
				<use xlink:href="#_x31__1_"  style="overflow:visible;"/>
			</clipPath>
			<path id="_x33__1_" class="st4" d="M118.4,130.64c6.68,0.11,19.71,0.37,31.32-3.51c0,0-0.31,4.15-0.31,8.99
				c0,4.84,0.31,8.99,0.31,8.99c-10.64-3.56-23.79-3.64-31.32-3.54v25.77h-10.55v-25.77c-7.53-0.1-20.67-0.02-31.32,3.54
				c0,0,0.31-4.15,0.31-8.99c0-4.84-0.31-8.99-0.31-8.99c11.6,3.88,24.64,3.62,31.32,3.51v-16.18c-6.09-0.05-14.86,0.24-24.78,3.56
				c0,0,0.31-4.15,0.31-8.99c0-4.84-0.31-8.99-0.31-8.99c9.91,3.31,18.67,3.61,24.75,3.56c-0.31-10.25-3.3-23.17-3.3-23.17
				s6.14,0.48,8.6,0.48c2.46,0,8.6-0.48,8.6-0.48s-2.98,12.92-3.3,23.17c6.09,0.05,14.85-0.24,24.75-3.56c0,0-0.31,4.15-0.31,8.99
				c0,4.84,0.31,8.99,0.31,8.99c-9.92-3.32-18.69-3.61-24.78-3.56V130.64z"/>
			<path id="_x32__1_" class="st5" d="M112.04,240.31l-51.12-45.56c0,0,6.54-21.14,19.29-21.14c10.14,0,13.84,8.17,13.84,8.17
				s6.65-17.23,19.08-17.23c12.42,0,19.08,17.23,19.08,17.23s3.7-8.17,13.83-8.17c12.76,0,19.29,21.14,19.29,21.14L112.04,240.31z"
				/>
		</g>
	</g>
</g>
</svg>
