<?xml version="1.0" encoding="utf-8"?>
<!-- Generator: Adobe Illustrator 25.2.3, SVG Export Plug-In . SVG Version: 6.00 Build 0)  -->
<svg version="1.1" id="Layer_1" xmlns="http://www.w3.org/2000/svg" xmlns:xlink="http://www.w3.org/1999/xlink" x="0px" y="0px"
	 viewBox="0 0 512 512" style="enable-background:new 0 0 512 512;" xml:space="preserve">
<style type="text/css">
	.st0{fill:#333333;}
</style>
<path class="st0" d="M377.3,194.4c0.4,1.7-0.4,2.4-2.1,2.8l-5.5,1.4c-1.4,0.3-1.7,0-2.8-2.4c-2.8-6.6-13.2-33.4-24.6-38.9
	c-10.4-5.2-43.1-5.9-60.1-5.9h-9.7v99c0,4.9,0,102.1,0.4,108c0.7,8.7,3.5,13.9,11.8,13.9h21.9c3.1,0,3.5,1,3.5,3.5v7.3
	c0,1.7-0.3,2.8-3.5,2.8c-3.5,0-14.6-1-48.6-1c-33.3,0-47.9,1-52.8,1c-2.8,0-3.1-1.4-3.1-3.5v-6.6c0-2.4,0.4-3.5,2.4-3.5H228
	c6.9,0,11.1-4.2,11.4-8.3c1-10.1,1-116.7,1-123.3v-89.2h-8.7c-11.1,0-41.3,0-54.9,4.2c-15.6,4.8-26.1,29.2-30.9,40.3
	c-0.7,1.7-1.7,2.1-3.5,1.7l-6.3-1.7c-1.1-0.3-2.1-0.7-1.4-2.8c3.5-12.5,15.6-57.3,16.3-61.1c0.7-4.5,2.1-5.6,3.5-5.6
	c1.7,0,2.8,0.3,4.2,1.4l4.5,3.1c6.2,4.5,9.7,5.6,19.8,5.9c18.4,0.7,33,2.1,65.6,2.1h16.7c37.9,0,52.8-1.4,69.8-2.1
	c7.7-0.3,12.2-1.4,18-4.8l6.6-4.2c1.7-1.1,2.8-1.4,4.2-1.4c1.7,0,2.4,1,3.1,5.6C367.9,136,374.5,179.1,377.3,194.4 M506,256
	C506,117.9,394.1,6,256,6C117.9,6,6,117.9,6,256c0,138.1,111.9,250,250,250C394.1,506,506,394.1,506,256"/>
</svg>
